<?xml version="1.0" encoding="UTF-8"?> <svg xmlns="http://www.w3.org/2000/svg" id="Layer_2" data-name="Layer 2" viewBox="0 0 841.1 278.89"><defs><style> .cls-1 { fill: #15bc78; } .cls-1, .cls-2, .cls-3 { stroke-width: 0px; } .cls-2 { fill: #1f68e8; } .cls-3 { fill: #1c1a1b; } </style></defs><g id="Layer_1-2" data-name="Layer 1"><g><path class="cls-3" d="M16.2,258.57c-2.68,0-5.27-.49-7.75-1.46-2.48-.97-4.51-2.5-6.09-4.58-1.58-2.08-2.36-4.66-2.36-7.75,0-4.16,1.24-7.38,3.72-9.66,2.48-2.28,6-3.92,10.56-4.93l18.31-4.33v-.4c0-4.09-1.14-7.02-3.42-8.8-2.28-1.78-5.47-2.67-9.56-2.67-2.35,0-4.66.22-6.94.65-2.28.44-4.33.89-6.14,1.36l-2.62.7-1.51-5.23,2.51-1.01c2.82-1.14,5.62-2.01,8.4-2.62,2.78-.6,5.58-.9,8.4-.9,5.57,0,10.11,1.49,13.63,4.48,3.52,2.99,5.28,7.6,5.28,13.83v21.43c0,2.28.54,3.82,1.61,4.63,1.07.81,3.35,1.31,6.84,1.51l-.4,5.33c-.54.07-1.16.15-1.86.25-.7.1-1.43.15-2.16.15-3.29,0-5.82-.75-7.6-2.26-1.78-1.51-2.94-3.4-3.47-5.68l-2.31,2.01c-2.28,1.95-4.76,3.42-7.44,4.43-2.68,1.01-5.23,1.51-7.65,1.51ZM18.71,251.62c1.81,0,3.62-.35,5.43-1.06,1.81-.7,3.66-1.73,5.53-3.07l2.92-2.11v-14.29l-17,4.63c-2.95.81-4.98,1.88-6.09,3.22-1.11,1.34-1.66,2.98-1.66,4.93,0,2.48.99,4.39,2.97,5.73,1.98,1.34,4.61,2.01,7.9,2.01Z"></path><path class="cls-3" d="M78.87,258.57c-4.83,0-9.17-1.02-13.03-3.07-3.86-2.05-6.91-4.98-9.15-8.8-2.25-3.82-3.37-8.45-3.37-13.88s1.17-10.18,3.52-14.03c2.35-3.86,5.45-6.79,9.31-8.8,3.86-2.01,8.13-3.02,12.83-3.02,2.21,0,4.43.2,6.64.6,2.21.4,4.33,1.04,6.34,1.91l2.51,1.01-1.61,5.94-3.02-.9c-1.68-.47-3.37-.82-5.08-1.06-1.71-.23-3.34-.35-4.88-.35-3.56,0-6.71.74-9.46,2.21-2.75,1.48-4.91,3.59-6.49,6.34-1.58,2.75-2.36,6.14-2.36,10.16s.8,7.23,2.41,10.01c1.61,2.78,3.81,4.9,6.59,6.34,2.78,1.44,5.95,2.16,9.51,2.16,1.54,0,3.2-.12,4.98-.35,1.78-.23,3.5-.59,5.18-1.06l3.22-.9,1.61,5.73-2.82,1.21c-2.15.87-4.38,1.53-6.69,1.96-2.31.44-4.54.65-6.69.65Z"></path><path class="cls-3" d="M117.7,258.57c-2.68,0-5.27-.49-7.75-1.46-2.48-.97-4.51-2.5-6.09-4.58-1.58-2.08-2.36-4.66-2.36-7.75,0-4.16,1.24-7.38,3.72-9.66,2.48-2.28,6-3.92,10.56-4.93l18.31-4.33v-.4c0-4.09-1.14-7.02-3.42-8.8-2.28-1.78-5.47-2.67-9.56-2.67-2.35,0-4.66.22-6.94.65-2.28.44-4.33.89-6.14,1.36l-2.62.7-1.51-5.23,2.51-1.01c2.82-1.14,5.62-2.01,8.4-2.62,2.78-.6,5.58-.9,8.4-.9,5.57,0,10.11,1.49,13.63,4.48,3.52,2.99,5.28,7.6,5.28,13.83v21.43c0,2.28.54,3.82,1.61,4.63,1.07.81,3.35,1.31,6.84,1.51l-.4,5.33c-.54.07-1.16.15-1.86.25-.7.1-1.43.15-2.16.15-3.29,0-5.82-.75-7.6-2.26-1.78-1.51-2.94-3.4-3.47-5.68l-2.31,2.01c-2.28,1.95-4.76,3.42-7.44,4.43-2.68,1.01-5.23,1.51-7.65,1.51ZM120.22,251.62c1.81,0,3.62-.35,5.43-1.06,1.81-.7,3.66-1.73,5.53-3.07l2.92-2.11v-14.29l-17,4.63c-2.95.81-4.98,1.88-6.09,3.22-1.11,1.34-1.66,2.98-1.66,4.93,0,2.48.99,4.39,2.97,5.73,1.98,1.34,4.61,2.01,7.9,2.01Z"></path><path class="cls-3" d="M177.86,258.57c-3.62,0-6.84-.67-9.66-2.01-2.82-1.34-5.22-3.2-7.19-5.58-1.98-2.38-3.51-5.13-4.58-8.25-1.07-3.12-1.61-6.42-1.61-9.91s.54-6.98,1.61-10.06c1.07-3.08,2.62-5.82,4.63-8.2,2.01-2.38,4.43-4.24,7.24-5.58,2.82-1.34,6-2.01,9.56-2.01,2.15,0,4.34.3,6.59.9,2.25.6,4.44,1.44,6.59,2.52l3.22,1.71v-28.47l8.05-3.22v77.46h-6.04l-.81-6.04-3.42,2.21c-2.28,1.41-4.61,2.51-6.99,3.32-2.38.8-4.78,1.21-7.19,1.21ZM163.07,232.81c0,3.82.69,7.13,2.06,9.91,1.37,2.78,3.32,4.93,5.83,6.44,2.52,1.51,5.48,2.26,8.9,2.26,1.54,0,3.13-.23,4.78-.7,1.64-.47,3.44-1.21,5.38-2.21l4.22-2.21v-27.77l-4.22-1.91c-1.88-.8-3.64-1.42-5.28-1.86-1.64-.43-3.24-.65-4.78-.65-3.49,0-6.49.79-9,2.36-2.51,1.58-4.46,3.77-5.83,6.59-1.38,2.82-2.06,6.07-2.06,9.76Z"></path><path class="cls-3" d="M241.84,258.57c-4.7,0-9.05-.97-13.08-2.92-4.02-1.94-7.26-4.83-9.71-8.65-2.45-3.82-3.67-8.52-3.67-14.08,0-3.76.62-7.21,1.86-10.36,1.24-3.15,2.98-5.89,5.23-8.2,2.25-2.31,4.86-4.12,7.85-5.43,2.98-1.31,6.22-1.96,9.71-1.96,4.96,0,9.1,1.11,12.42,3.32,3.32,2.21,5.8,5.17,7.44,8.85,1.64,3.69,2.47,7.81,2.47,12.37v2.82h-38.53c.2,3.76,1.17,6.89,2.92,9.41,1.74,2.51,3.99,4.43,6.74,5.73,2.75,1.31,5.73,1.96,8.95,1.96,2.01,0,4.02-.18,6.04-.55,2.01-.37,4.02-.85,6.04-1.46l4.23-1.41,2.21,5.33-3.92,1.81c-2.35,1.07-4.83,1.91-7.45,2.52-2.62.6-5.2.9-7.75.9ZM224.14,228.08h30.48c-.4-4.36-1.83-7.8-4.28-10.31-2.45-2.51-5.89-3.77-10.31-3.77-2.68,0-5.13.57-7.34,1.71-2.21,1.14-4.08,2.77-5.58,4.88-1.51,2.11-2.5,4.61-2.97,7.49Z"></path><path class="cls-3" d="M274.64,257.86v-50.2h6.14l.81,5.53,3.92-2.11c2.55-1.34,5.03-2.36,7.44-3.07,2.41-.7,4.79-1.06,7.14-1.06,3.69,0,6.72.7,9.1,2.11,2.38,1.41,4.16,3.35,5.33,5.83,1.17,2.48,1.76,5.43,1.76,8.85v34.1h-8.05v-32.39c0-3.75-.94-6.55-2.82-8.4-1.88-1.84-4.66-2.77-8.35-2.77-1.68,0-3.3.22-4.88.65-1.58.44-3.17,1.02-4.78,1.76l-4.73,2.21v38.93h-8.05ZM341.74,257.86v-32.39c0-3.75-.94-6.55-2.82-8.4-1.88-1.84-4.63-2.77-8.25-2.77-1.68,0-3.32.22-4.93.65-1.61.44-3.19,1.02-4.73,1.76l-6.04,2.82-1.81-5.13,6.14-3.32c2.48-1.41,4.95-2.45,7.39-3.12,2.45-.67,4.84-1.01,7.19-1.01,3.69,0,6.72.7,9.11,2.11,2.38,1.41,4.16,3.35,5.33,5.83,1.17,2.48,1.76,5.43,1.76,8.85v34.1h-8.35Z"></path><path class="cls-3" d="M368.3,278.89c-1.01,0-2.18-.1-3.52-.3s-2.85-.5-4.53-.91l-3.42-.9,1.21-6.24,3.22.5c1.21.13,2.36.23,3.47.3,1.11.07,2,.1,2.67.1,1.68,0,3.02-.35,4.02-1.06,1.01-.7,1.84-1.86,2.52-3.47l3.72-9.05-20.82-50.2h8.75l16.3,40.74h.3l16.3-40.74h8.35l-26.36,62.98c-1.14,2.88-2.7,4.98-4.68,6.29-1.98,1.31-4.48,1.96-7.5,1.96Z"></path></g><path class="cls-3" d="M63.97,154.51c-13.43,0-24.92-2.36-34.48-7.09-9.56-4.73-16.87-11.44-21.91-20.14-5.05-8.7-7.57-19.01-7.57-30.94,0-9.45,1.61-17.78,4.83-24.97,3.22-7.19,7.71-13.24,13.45-18.13,5.75-4.89,12.43-8.56,20.06-11.04,7.63-2.47,15.79-3.71,24.49-3.71,5.16,0,10.34.51,15.55,1.53,5.21,1.02,10.34,2.5,15.39,4.43l5.16,2.09-4.19,18.85-6.28-1.13c-4.51-.97-8.84-1.72-12.97-2.26-4.14-.54-8.08-.81-11.84-.81-7.52,0-14.13,1.24-19.82,3.71-5.69,2.47-10.15,6.31-13.37,11.52-3.22,5.21-4.83,11.95-4.83,20.22s1.53,14.74,4.59,20.06c3.06,5.32,7.49,9.29,13.29,11.92,5.8,2.63,12.83,3.95,21.11,3.95,3.01,0,6.12-.19,9.35-.56,3.22-.38,6.5-.94,9.83-1.69v-21.59h-29v-19.98h52.37v54.78c-3.65,2.04-7.87,3.89-12.65,5.56-4.78,1.67-9.75,2.98-14.9,3.95-5.16.97-10.37,1.45-15.63,1.45Z"></path><path class="cls-3" d="M180.78,154.51c-11.82,0-22.07-2.44-30.78-7.33-8.7-4.89-15.41-11.68-20.14-20.38-4.73-8.7-7.09-18.85-7.09-30.45s2.44-21.72,7.33-30.37c4.89-8.65,11.68-15.39,20.38-20.22s18.8-7.25,30.29-7.25,22.21,2.44,30.86,7.33c8.65,4.89,15.33,11.66,20.06,20.3,4.73,8.65,7.09,18.77,7.09,30.37s-2.42,21.75-7.25,30.45c-4.83,8.7-11.63,15.47-20.38,20.3-8.76,4.83-18.88,7.25-30.37,7.25ZM180.78,131.31c6.55,0,12.25-1.26,17.08-3.79,4.83-2.52,8.59-6.39,11.28-11.6,2.68-5.21,4.03-11.73,4.03-19.58s-1.32-14.31-3.95-19.42c-2.63-5.1-6.36-8.91-11.2-11.44-4.83-2.52-10.58-3.79-17.24-3.79s-12.11,1.26-17,3.79c-4.89,2.53-8.68,6.36-11.36,11.52-2.69,5.16-4.03,11.66-4.03,19.5s1.31,14.34,3.95,19.5c2.63,5.16,6.36,9,11.2,11.52,4.83,2.53,10.58,3.79,17.24,3.79Z"></path><path class="cls-3" d="M258.44,152.9V40.11h52.85c8.27,0,15.41,1.43,21.43,4.27,6.01,2.85,10.69,6.9,14.02,12.16,3.33,5.26,4.99,11.6,4.99,19.01,0,6.44-1.24,11.98-3.71,16.6-2.47,4.62-5.86,8.38-10.15,11.28-4.3,2.9-9.35,5.08-15.15,6.53-5.8,1.45-12.03,2.18-18.69,2.18h-20.62v40.76h-24.97ZM283.42,92.15h24.33c6.12,0,10.82-1.34,14.1-4.03,3.28-2.68,4.91-6.61,4.91-11.76s-1.61-8.91-4.83-11.28c-3.22-2.36-8-3.55-14.34-3.55h-24.17v30.61ZM329.82,152.9l-25.78-43.83,23.69-4.67,29.97,48.5h-27.87Z"></path><path class="cls-3" d="M400.88,152.9V62.02h-37.38v-21.91h99.58v21.91h-37.06v90.87h-25.14Z"></path><path class="cls-3" d="M516.57,154.51c-6.02,0-11.82-.43-17.4-1.29-5.59-.86-10.96-1.99-16.11-3.38l-9.67-2.74,4.03-19.17,12.08,1.93c3.87.65,8.32,1.21,13.37,1.69,5.05.48,9.77.72,14.18.72,6.55,0,11.38-.99,14.5-2.98,3.11-1.99,4.67-4.81,4.67-8.46,0-1.93-.51-3.65-1.53-5.16-1.02-1.5-3.2-3.01-6.53-4.51-3.33-1.5-8.43-3.28-15.31-5.32-8.92-2.68-16.03-5.4-21.35-8.14-5.32-2.74-9.1-6.12-11.36-10.15-2.26-4.03-3.38-9.16-3.38-15.39,0-7.95,2.01-14.39,6.04-19.34,4.03-4.94,9.48-8.57,16.35-10.88,6.87-2.31,14.61-3.46,23.2-3.46,4.83,0,9.85.38,15.07,1.13,5.21.75,10.34,1.83,15.39,3.22l7.41,1.93-3.54,18.85-11.12-1.29c-3.22-.43-6.77-.86-10.63-1.29-3.87-.43-7.89-.64-12.08-.64-6.88,0-12.03.94-15.47,2.82-3.44,1.88-5.16,4.75-5.16,8.62,0,1.93.59,3.55,1.77,4.83,1.18,1.29,3.57,2.58,7.17,3.87,3.6,1.29,9,2.9,16.19,4.83,8.91,2.26,15.92,4.86,21.03,7.81,5.1,2.96,8.75,6.44,10.96,10.47,2.2,4.03,3.3,8.84,3.3,14.42,0,8.27-2.04,15.09-6.12,20.46-4.08,5.37-9.61,9.37-16.6,12-6.98,2.63-14.77,3.95-23.36,3.95Z"></path><path class="cls-2" d="M629.68,154.51c-10.42,0-19.44-1.83-27.07-5.48-7.63-3.65-13.48-8.99-17.56-16.03-4.08-7.03-6.12-15.55-6.12-25.54V40.11h24.97v63.64c0,10.1,2.34,17.16,7.01,21.19s11.2,6.04,19.58,6.04,14.96-2.01,19.42-6.04c4.46-4.03,6.69-11.09,6.69-21.19v-63.64h24.17v67.35c0,9.99-2.12,18.5-6.37,25.54-4.24,7.04-10.18,12.38-17.8,16.03-7.63,3.65-16.6,5.48-26.91,5.48Z"></path><path class="cls-2" d="M702.18,152.9V40.11h53.17c8.38,0,15.55,1.56,21.51,4.67,5.96,3.12,10.5,7.57,13.61,13.37,3.11,5.8,4.67,12.68,4.67,20.62s-1.64,15.07-4.91,21.03c-3.28,5.96-7.92,10.55-13.94,13.78-6.02,3.22-13.11,4.83-21.27,4.83h-28.04l.16,34.48h-24.97ZM727.15,96.83h23.36c6.12,0,10.82-1.42,14.1-4.27,3.28-2.84,4.91-7.38,4.91-13.61s-1.64-10.82-4.91-13.45c-3.28-2.63-7.98-3.95-14.1-3.95h-23.36v35.29Z"></path><path class="cls-1" d="M809.26,59.55c-3.58-17.31-15.03-26.08-31.84-29.62V0h63.69v59.5"></path></g></svg> 